<svg width="49" height="52" viewBox="0 0 49 52" fill="none" xmlns="http://www.w3.org/2000/svg">
<path d="M10.952 44.8204L2.70711 36.5755C2.31658 36.185 2.31658 35.5518 2.70711 35.1613L11.3982 26.4703C11.7887 26.0797 12.4218 26.0797 12.8124 26.4703L18.6649 32.3228C19.2736 32.9315 20.2036 33.0824 20.9735 32.6974L22.9322 31.7181C27.3833 29.4925 30.9925 25.8833 33.2181 21.4322L34.1974 19.4735C34.5824 18.7036 34.4315 17.7736 33.8228 17.1649L27.9703 11.3124C27.5797 10.9218 27.5797 10.2887 27.9703 9.89816L36.6613 1.20711C37.0518 0.816584 37.685 0.816584 38.0755 1.20711L46.3204 9.45196C48.4317 11.5633 48.6693 14.9059 46.8777 17.2946L36.8135 30.7135C35.5059 32.4571 33.9571 34.0059 32.2135 35.3135L18.7946 45.3777C16.4059 47.1693 13.0633 46.9317 10.952 44.8204Z" fill="white"/>
</svg>
